<svg width="269" height="40" viewBox="0 0 269 40" fill="none" xmlns="http://www.w3.org/2000/svg">
<path id="&#240;&#157;&#153;&#177;&#240;&#157;&#154;&#152;&#240;&#157;&#154;&#152;&#240;&#157;&#154;&#148;&#240;&#157;&#154;&#156; &#240;&#157;&#154;&#148;&#240;&#157;&#154;&#142;&#240;&#157;&#154;&#142;&#240;&#157;&#154;&#153;&#240;&#157;&#154;&#142;" d="M1.385 0.209997C0.8 0.209997 0.305 0.704999 0.305 1.29V2.01C0.305 2.64 0.8 3.09 1.385 3.09H3.32V27.12H1.385C0.8 27.12 0.305 27.615 0.305 28.2V28.92C0.305 29.505 0.8 30 1.385 30H13.13C17.27 30 20.6 26.355 20.6 21.81C20.6 18.21 18.125 15.195 14.795 14.43C17.675 13.44 19.7 10.83 19.7 7.77C19.7 3.585 16.325 0.209997 12.185 0.209997H1.385ZM5.975 13.08V3.09H12.185C14.885 3.09 17.09 5.205 17.09 7.77C17.09 10.74 14.48 13.08 11.24 13.08H5.975ZM5.975 27.12V15.96H12.635C15.605 15.96 17.99 18.615 17.99 21.81C17.99 24.735 15.38 27.12 12.185 27.12H5.975ZM43.3426 19.875C43.3426 14.07 39.3376 9.345 34.3876 9.345C29.4376 9.345 25.4326 14.07 25.4326 19.875C25.4326 25.635 29.4376 30.27 34.3876 30.27C39.3376 30.27 43.3426 25.635 43.3426 19.875ZM40.7326 19.47C40.7326 23.835 37.8976 27.39 34.3876 27.39C30.8776 27.39 28.0426 23.835 28.0426 19.47C28.0426 15.465 30.8776 12.225 34.3876 12.225C37.8976 12.225 40.7326 15.465 40.7326 19.47ZM66.9852 19.875C66.9852 14.07 62.9802 9.345 58.0302 9.345C53.0802 9.345 49.0752 14.07 49.0752 19.875C49.0752 25.635 53.0802 30.27 58.0302 30.27C62.9802 30.27 66.9852 25.635 66.9852 19.875ZM64.3752 19.47C64.3752 23.835 61.5402 27.39 58.0302 27.39C54.5202 27.39 51.6852 23.835 51.6852 19.47C51.6852 15.465 54.5202 12.225 58.0302 12.225C61.5402 12.225 64.3752 15.465 64.3752 19.47ZM92.6527 28.2C92.6527 27.615 92.2027 27.12 91.5727 27.12H89.2327L82.3477 17.58L87.8377 12.63H90.6277C91.2577 12.63 91.7077 12.135 91.7077 11.55V10.83C91.7077 10.245 91.2577 9.75 90.6277 9.75H82.6177C82.0327 9.75 81.5377 10.245 81.5377 10.83V11.55C81.5377 12.135 82.0327 12.63 82.6177 12.63H84.5977L77.2177 19.29V3.675C77.2177 3.09 76.7227 2.595 76.1377 2.595H72.1327C71.5027 2.595 71.0077 3.09 71.0077 3.675V4.395C71.0077 5.025 71.5027 5.52 72.1327 5.52H75.0577V27.12H72.1327C71.5027 27.12 71.0077 27.615 71.0077 28.2V28.92C71.0077 29.505 71.5027 30 72.1327 30H80.1427C80.7277 30 81.2227 29.505 81.2227 28.92V28.2C81.2227 27.615 80.7277 27.12 80.1427 27.12H77.2177V22.215L80.7277 19.065L86.5327 27.12H85.1827C84.5977 27.12 84.1027 27.615 84.1027 28.2V28.92C84.1027 29.505 84.5977 30 85.1827 30H91.5727C92.2027 30 92.6527 29.505 92.6527 28.92V28.2ZM103.47 17.67C100.905 17.22 99.4203 16.32 99.4203 15.015C99.4203 13.665 100.86 12.225 105.36 12.225C108.555 12.225 110.175 13.44 110.175 15.6C110.175 16.185 110.67 16.68 111.3 16.68H111.75C112.335 16.68 112.83 16.185 112.83 15.6V10.425C112.83 9.84 112.335 9.345 111.75 9.345H111.615C111.12 9.345 110.715 9.66 110.58 10.065L110.355 10.65C109.05 9.795 107.34 9.345 105.495 9.345C100.68 9.345 96.8103 10.965 96.8103 14.745C96.8103 18.21 100.545 19.515 103.11 19.965L107.16 20.685C109.815 21.135 111.525 22.35 111.525 23.97C111.525 25.815 109.905 27.39 105.495 27.39C102.21 27.39 100.185 25.725 99.4203 22.485C99.2853 21.99 98.8803 21.63 98.3403 21.63H97.8903C97.3053 21.63 96.8103 22.125 96.8103 22.71V29.19C96.8103 29.775 97.3053 30.27 97.8903 30.27H98.0253C98.5203 30.27 98.9703 29.955 99.0603 29.505L99.5103 28.02C100.995 29.46 102.975 30.27 105.495 30.27C110.4 30.27 114.135 28.335 114.135 24.24C114.135 20.64 110.535 18.885 107.61 18.39L103.47 17.67ZM151.188 28.2C151.188 27.615 150.738 27.12 150.108 27.12H147.768L140.883 17.58L146.373 12.63H149.163C149.793 12.63 150.243 12.135 150.243 11.55V10.83C150.243 10.245 149.793 9.75 149.163 9.75H141.153C140.568 9.75 140.073 10.245 140.073 10.83V11.55C140.073 12.135 140.568 12.63 141.153 12.63H143.133L135.753 19.29V3.675C135.753 3.09 135.258 2.595 134.673 2.595H130.668C130.038 2.595 129.543 3.09 129.543 3.675V4.395C129.543 5.025 130.038 5.52 130.668 5.52H133.593V27.12H130.668C130.038 27.12 129.543 27.615 129.543 28.2V28.92C129.543 29.505 130.038 30 130.668 30H138.678C139.263 30 139.758 29.505 139.758 28.92V28.2C139.758 27.615 139.263 27.12 138.678 27.12H135.753V22.215L139.263 19.065L145.068 27.12H143.718C143.133 27.12 142.638 27.615 142.638 28.2V28.92C142.638 29.505 143.133 30 143.718 30H150.108C150.738 30 151.188 29.505 151.188 28.92V28.2ZM172.895 24.105C172.895 23.52 172.4 23.025 171.815 23.025H171.365C170.87 23.025 170.465 23.385 170.33 23.835C169.7 25.905 167.9 27.39 165.83 27.39C161.105 27.39 157.415 23.88 157.415 19.785L157.46 19.29H171.815C172.4 19.29 172.895 18.795 172.895 18.21C172.895 12.675 169.655 9.345 164.165 9.345C158.9 9.345 154.805 14.16 154.805 19.785C154.805 25.545 159.26 30.27 164.84 30.27C168.485 30.27 171.815 27.975 172.85 24.42L172.895 24.105ZM158.045 16.68C159.125 14.025 161.51 12.225 164.165 12.225C167.585 12.225 169.655 13.8 170.15 16.68H158.045ZM196.538 24.105C196.538 23.52 196.043 23.025 195.458 23.025H195.008C194.513 23.025 194.108 23.385 193.973 23.835C193.343 25.905 191.543 27.39 189.473 27.39C184.748 27.39 181.058 23.88 181.058 19.785L181.103 19.29H195.458C196.043 19.29 196.538 18.795 196.538 18.21C196.538 12.675 193.298 9.345 187.808 9.345C182.543 9.345 178.448 14.16 178.448 19.785C178.448 25.545 182.903 30.27 188.483 30.27C192.128 30.27 195.458 27.975 196.493 24.42L196.538 24.105ZM181.688 16.68C182.768 14.025 185.153 12.225 187.808 12.225C191.228 12.225 193.298 13.8 193.793 16.68H181.688ZM206.591 10.83C206.591 10.245 206.096 9.75 205.511 9.75H201.236C200.651 9.75 200.156 10.245 200.156 10.83V11.55C200.156 12.135 200.651 12.63 201.236 12.63H203.936V37.065H201.236C200.651 37.065 200.156 37.515 200.156 38.145V38.865C200.156 39.45 200.651 39.945 201.236 39.945H209.291C209.876 39.945 210.371 39.45 210.371 38.865V38.145C210.371 37.515 209.876 37.065 209.291 37.065H206.591V27.48C208.031 29.19 210.056 30.27 212.486 30.27C217.391 30.27 221.036 25.365 221.036 19.875C221.036 14.475 217.796 9.48 213.161 9.48C210.731 9.48 208.301 10.335 206.591 11.91V10.83ZM206.591 16.05C207.176 13.935 209.471 12.36 212.306 12.36C215.501 12.36 218.426 15.555 218.426 19.875C218.426 24.15 215.366 27.39 211.856 27.39C209.291 27.39 207.131 25.275 206.591 22.395V16.05ZM243.823 24.105C243.823 23.52 243.328 23.025 242.743 23.025H242.293C241.798 23.025 241.393 23.385 241.258 23.835C240.628 25.905 238.828 27.39 236.758 27.39C232.033 27.39 228.343 23.88 228.343 19.785L228.388 19.29H242.743C243.328 19.29 243.823 18.795 243.823 18.21C243.823 12.675 240.583 9.345 235.093 9.345C229.828 9.345 225.733 14.16 225.733 19.785C225.733 25.545 230.188 30.27 235.768 30.27C239.413 30.27 242.743 27.975 243.778 24.42L243.823 24.105ZM228.973 16.68C230.053 14.025 232.438 12.225 235.093 12.225C238.513 12.225 240.583 13.8 241.078 16.68H228.973ZM264.316 9.48C261.166 9.48 258.286 10.875 256.396 13.17V10.83C256.396 10.245 255.901 9.75 255.316 9.75H249.421C248.836 9.75 248.341 10.245 248.341 10.83V11.55C248.341 12.135 248.836 12.63 249.421 12.63H253.786V27.12H249.421C248.836 27.12 248.341 27.615 248.341 28.2V28.92C248.341 29.505 248.836 30 249.421 30H262.111C262.696 30 263.191 29.505 263.191 28.92V28.2C263.191 27.615 262.696 27.12 262.111 27.12H256.396V19.29C256.396 15.42 259.951 12.36 264.316 12.36L265.396 12.405C265.621 13.125 266.341 13.485 266.926 13.485C267.646 13.485 268.501 12.945 268.501 11.91C268.501 9.615 265.846 9.48 264.676 9.48H264.316Z" fill="black"/>
</svg>
