<svg width="272" height="225" viewBox="0 0 272 225" fill="none" xmlns="http://www.w3.org/2000/svg">
<g id="free-icon-legend-2178114">
<path id="Path" d="M136 199.184C136 208.98 125.201 215.026 116.85 209.858C105.817 203.029 90.1142 196.634 70 196.634C37.9185 196.634 17.0606 212.902 8.46916 221.25C6.8006 222.872 4 221.689 4 219.366V61.8656C4 58.8452 5.17559 55.939 7.29676 53.7814C15.0473 45.8983 36.3493 28 70 28C113.154 27.9995 136 57.435 136 57.435V199.184Z" fill="#F2E7E4"/>
<path id="Path_2" d="M268 219.366C268 221.689 265.199 222.872 263.531 221.25C254.939 212.902 234.082 196.634 202 196.634C181.886 196.634 166.183 203.029 155.15 209.858C146.799 215.026 136 208.98 136 199.184V57.4354C136 57.4354 158.846 28 202 28C235.651 28 256.953 45.8983 264.703 53.7813C266.824 55.939 268 58.8451 268 61.8655V219.366Z" fill="#F2E7E4"/>
<path id="Path_3" d="M243.019 37V160.876C243.019 168.209 235.914 173.481 228.933 171.268C221.092 168.782 212.105 167.158 202 167.158C158.846 167.158 136 196.741 136 196.741V199.07C136 208.915 146.799 214.991 155.15 209.797C166.183 202.934 181.886 196.507 202 196.507C234.082 196.507 254.939 212.857 263.531 221.247C265.199 222.876 268 221.687 268 219.353V61.0673C268 58.0147 266.806 55.0871 264.67 52.9096C260.78 48.9435 253.51 42.4775 243.019 37V37Z" fill="#EEDFDA"/>
<path id="Path_4" d="M109.534 36V160.338C109.534 167.651 102.505 172.851 95.5156 170.764C88.0132 168.525 79.4998 167.088 70 167.088C26.8462 167.088 4 196.709 4 196.709V219.35C4 221.687 6.8006 222.877 8.46916 221.246C17.0606 212.845 37.9185 196.475 70 196.475C90.1142 196.475 105.817 202.91 116.85 209.781C125.201 214.982 136 208.898 136 199.04V56.3995C136 56.3995 126.963 44.6944 109.534 36Z" fill="#EEDFDA"/>
<path id="Path_5" d="M108.474 84.6654C92.7192 84.6654 78.9207 76.2814 71.2791 63.7255C70.6902 62.7582 69.3092 62.7582 68.7204 63.7255C61.0787 76.2809 47.2808 84.6654 31.5251 84.6654C31.0057 84.6654 30.4888 84.6558 29.9741 84.6373C28.4666 84.5832 27.1364 85.6444 26.888 87.1348C26.3055 90.623 26 94.2342 26 97.933C26 138.329 58.6175 165.459 67.6857 172.221C69.0646 173.25 70.9444 173.261 72.335 172.248C81.4318 165.619 114 139.017 114 97.933C114 94.2342 113.694 90.623 113.112 87.1348C112.863 85.6444 111.533 84.5832 110.026 84.6373C109.511 84.6558 108.993 84.6654 108.474 84.6654Z" fill="#D7A85F"/>
<path id="Path_6" d="M68.691 63.7255C60.8758 76.281 46.7643 84.6656 30.6507 84.6656C30.1194 84.6656 29.5908 84.656 29.0644 84.6374C27.5226 84.5833 26.1622 85.6446 25.9082 87.1349C25.3125 90.6232 25 94.2345 25 97.9332C25 138.329 58.357 165.458 67.6323 172.221C68.3358 172.734 69.1671 172.994 70 173V63C69.4958 63 68.9922 63.2418 68.691 63.7255Z" fill="#E7B467"/>
<path id="Path_7" d="M113.108 87.1943C112.858 85.705 111.525 84.6445 110.012 84.6985C109.496 84.7171 108.978 84.7266 108.457 84.7266C105.741 84.7266 103.085 84.4738 100.507 84C100.855 86.7189 101.04 89.5035 101.04 92.3411C101.04 132.339 70.0356 158.597 60 166.049C63.1265 168.836 65.7782 170.913 67.5412 172.222C68.9249 173.249 70.8101 173.26 72.205 172.248C81.3302 165.624 114 139.041 114 97.9846C113.999 94.2889 113.692 90.6801 113.108 87.1943Z" fill="#C79A57"/>
<path id="Path_8" d="M60 165.161C63.1696 167.902 65.8582 169.946 67.6453 171.234C68.3449 171.739 69.1716 171.994 70 172V157C65.9482 160.698 62.3892 163.439 60 165.161H60Z" fill="#D7A85F"/>
<path id="Path_9" d="M212 141H191V19.221L201.5 4L212 19.221V141Z" fill="#E0DDE2"/>
<path id="Path_10" d="M213 141V19.221L202 4V141H213Z" fill="#C8C1C9"/>
<path id="Path_11" d="M206.442 173H195.558C194.145 173 193 171.86 193 170.454V144H209V170.454C209 171.86 207.855 173 206.442 173Z" fill="#D7A85F"/>
<path id="Path_12" d="M202.313 144V169.78C202.313 171.558 200.83 173 199 173H206.688C208.517 173 210 171.558 210 169.78V144H202.313Z" fill="#C79A57"/>
<path id="Path_13" d="M233.181 148H169.819C166.605 148 164 145.358 164 142.098V141.902C164 138.643 166.605 136 169.819 136H233.181C236.395 136 239 138.642 239 141.902V142.098C239 145.358 236.395 148 233.181 148Z" fill="#D7A85F"/>
<path id="Path_14" d="M233.784 136C233.334 138.871 230.898 141.068 227.951 141.068H164.781C164.544 141.068 164.311 141.05 164.082 141.022C164.033 141.334 164 141.651 164 141.977C164 145.303 166.648 148 169.915 148H233.085C236.352 148 239 145.303 239 141.977C239 138.892 236.721 136.353 233.784 136V136Z" fill="#C79A57"/>
<path id="Shape" fill-rule="evenodd" clip-rule="evenodd" d="M216.025 23.9054C243.442 27.9892 261.086 43.2783 267.562 49.8707C270.424 52.7841 272 56.647 272 60.7487V218.385C272 221.051 270.408 223.444 267.945 224.479C267.112 224.829 266.237 225 265.369 225C263.677 225 262.015 224.35 260.751 223.122C251.723 214.342 232.087 199.615 202.004 199.615C185.849 199.615 170.795 203.867 157.258 212.251C152.103 215.444 145.853 215.59 140.539 212.643C138.777 211.667 137.256 210.42 136 208.975C134.744 210.42 133.222 211.667 131.461 212.644C126.146 215.591 119.897 215.444 114.743 212.251C101.206 203.867 86.1512 199.615 69.9964 199.615C39.9128 199.615 20.2768 214.342 11.2498 223.122C9.98591 224.351 8.32309 225 6.63053 225C5.763 225 4.88803 224.83 4.0545 224.479C1.59163 223.443 0 221.051 0 218.385V60.7487C0 56.647 1.57622 52.7841 4.43753 49.8713C7.43644 46.8185 10.8247 43.8818 14.509 41.1427C16.277 39.8277 18.7786 40.1912 20.0967 41.9549C21.4147 43.7175 21.0502 46.2124 19.2822 47.5269C15.1045 50.6326 12.0063 53.5465 10.1426 55.4438C8.75181 56.8594 7.98628 58.7434 7.98628 60.7487V215.256C18.7191 205.562 39.4496 191.652 69.9975 191.652C87.6642 191.652 104.137 196.307 118.957 205.487C121.614 207.131 124.837 207.205 127.581 205.684C130.353 204.146 132.008 201.344 132.008 198.186V57.7622C130.093 55.581 124.907 50.1176 116.708 44.7242C102.697 35.5077 86.9816 30.8348 69.9975 30.8348C57.5471 30.8348 45.6307 33.4027 34.5785 38.4677C32.5747 39.388 30.2042 38.5111 29.283 36.5127C28.3624 34.5148 29.24 32.1503 31.2439 31.2321C43.3495 25.684 56.3879 22.8712 69.9975 22.8712C93.2875 22.8712 110.802 31.2443 121.393 38.268C128.209 42.7872 133.089 47.3096 135.992 50.3163C142.67 43.362 159.829 28.3701 186.988 24.049V19.1684C186.988 18.3594 187.234 17.5695 187.696 16.904L198.222 1.71763C198.967 0.642126 200.195 0 201.506 0C202.817 0 204.045 0.641596 204.79 1.71763L215.317 16.904C215.778 17.5695 216.025 18.3594 216.025 19.1684V23.9054ZM235.251 141.485C235.251 140.463 234.418 139.632 233.394 139.632H169.842C168.817 139.632 167.984 140.463 167.984 141.485V141.654C167.984 142.675 168.817 143.507 169.842 143.507H233.394C234.418 143.507 235.251 142.675 235.251 141.654V141.485ZM197.773 151.47H205.463V167.958H197.773V151.47ZM264.014 215.255C264.014 215.255 264.015 215.256 264.015 215.256H264.014V215.255ZM202.004 191.652C232.551 191.652 253.281 205.562 264.014 215.255V60.7487C264.014 58.7434 263.248 56.8599 261.858 55.4443C256.05 49.5322 240.383 35.9442 216.024 31.9633V89.9702C216.024 92.17 214.237 93.9523 212.031 93.9523C209.826 93.9523 208.039 92.1695 208.039 89.9702V20.4108L201.505 10.9845L194.971 20.4108V131.668H208.038V108.553C208.038 106.353 209.826 104.571 212.031 104.571C214.236 104.571 216.024 106.353 216.024 108.553V131.668H233.392C238.82 131.668 243.236 136.071 243.236 141.484V141.653C243.236 147.066 238.82 151.47 233.392 151.47H213.447V169.398C213.447 172.995 210.513 175.921 206.906 175.921H196.328C192.721 175.921 189.787 172.995 189.787 169.398V151.47H169.841C164.413 151.47 159.998 147.066 159.998 141.653V141.484C159.998 136.071 164.413 131.668 169.841 131.668H186.986V32.136C159.92 36.8984 143.736 53.5264 139.992 57.768V198.186C139.992 201.344 141.647 204.146 144.419 205.684C147.163 207.205 150.387 207.133 153.044 205.487C167.865 196.307 184.337 191.652 202.004 191.652Z" fill="black"/>
<path id="Shape_2" fill-rule="evenodd" clip-rule="evenodd" d="M69.5281 176C67.8538 176 66.1805 175.475 64.7577 174.425C54.4922 166.85 20.9989 138.877 21 96.9254C21 93.0695 21.3206 89.2147 21.9528 85.4676C22.5346 82.0212 25.636 79.5206 29.1854 79.6437C29.6554 79.6601 30.1307 79.6691 30.6082 79.6691C44.6699 79.6691 57.441 72.5541 64.7722 60.6369C65.7876 58.9861 67.5551 58 69.4997 58H69.5003C69.6609 58 69.8182 58.0122 69.974 58.0302C71.7281 58.1772 73.2959 59.1224 74.2284 60.6374C81.559 72.5547 94.3301 79.6697 108.392 79.6697C108.869 79.6697 109.345 79.6607 109.818 79.6442C113.341 79.5089 116.465 82.0207 117.047 85.4686C117.679 89.2174 118 93.0722 118 96.9259C118 139.6 84.4955 167.073 74.2268 174.477C72.8179 175.493 71.1725 176 69.5281 176ZM30.6071 87.643C30.3208 87.643 30.0349 87.6403 29.7502 87.635C29.2818 90.6804 29.0447 93.801 29.0452 96.9259C29.0452 130.735 53.291 154.861 65.4766 164.843V150.717C65.4766 148.514 67.2778 146.73 69.4997 146.73C71.7217 146.73 73.5229 148.515 73.5229 150.717V164.955C85.6742 155.199 109.954 131.378 109.954 96.9254C109.954 93.8026 109.717 90.6814 109.249 87.635C108.963 87.6403 108.678 87.643 108.391 87.643C94.9457 87.643 82.4871 82.2259 73.5223 72.7992V132.538C73.5223 134.741 71.7211 136.525 69.4992 136.525C67.2773 136.525 65.4761 134.74 65.4761 132.538V72.8066C65.3855 72.9021 65.2931 72.9958 65.2006 73.0895C65.1822 73.1082 65.1637 73.1269 65.1453 73.1456C56.2056 82.3591 43.8873 87.643 30.6071 87.643Z" fill="black"/>
</g>
</svg>
