<svg width="20" height="20" viewBox="0 0 20 20" fill="none" xmlns="http://www.w3.org/2000/svg">
<g id="sort-descending">
<path id="Shape" fill-rule="evenodd" clip-rule="evenodd" d="M10.8228 13.072C10.5525 12.7906 10.1141 12.7906 9.84387 13.072L6.21309 17.4007V0H4.83441V17.4264L1.18154 13.072C0.911323 12.7906 0.472875 12.7906 0.202689 13.072C-0.0675629 13.3534 -0.0675629 13.809 0.202689 14.0897L4.9881 19.7954C5.13218 19.9454 5.32381 20.009 5.512 19.999C5.70085 20.009 5.89183 19.9454 6.03587 19.7954L10.8213 14.0897C11.093 13.809 11.093 13.3534 10.8228 13.072ZM19.3106 1.42841L9.65982 1.42984C9.27928 1.42984 8.97047 1.10989 8.97047 0.714918C8.97047 0.319946 9.27928 0 9.65982 0H19.3106C19.6912 0 20 0.319946 20 0.714918C20 1.10989 19.6912 1.42841 19.3106 1.42841ZM11.0385 17.16H19.3106C19.6918 17.16 20 17.48 20 17.875C20 18.2699 19.6912 18.5692 19.3106 18.5692L11.0385 18.5898C10.658 18.5898 10.3491 18.2699 10.3491 17.875C10.3491 17.48 10.658 17.16 11.0385 17.16ZM9.65982 4.29019H19.3106C19.6918 4.29019 20 4.61017 20 5.0051C20 5.40004 19.6912 5.71359 19.3106 5.71359H9.65982C9.27928 5.71359 8.97047 5.40008 8.97047 5.0051C8.97047 4.61017 9.27928 4.29019 9.65982 4.29019ZM19.3106 8.57966H9.65982C9.27928 8.57966 8.97047 8.89964 8.97047 9.29458C8.97047 9.68955 9.27928 9.99805 9.65982 9.99805L19.3106 10.0095C19.6912 10.0095 20 9.68952 20 9.29458C20 8.90035 19.6918 8.57966 19.3106 8.57966ZM13.7959 12.8698H19.3106C19.6918 12.8698 20 13.1898 20 13.5847C20 13.9797 19.6912 14.2839 19.3106 14.2839H13.7959C13.4153 14.2839 13.1065 13.9797 13.1065 13.5847C13.1065 13.1898 13.4153 12.8698 13.7959 12.8698Z" fill="#007AFF"/>
</g>
</svg>
